<?xml version="1.0" standalone="no"?><!DOCTYPE svg PUBLIC "-//W3C//DTD SVG 1.1//EN" "http://www.w3.org/Graphics/SVG/1.1/DTD/svg11.dtd"><svg t="1730737317740" class="icon" viewBox="0 0 1024 1024" version="1.1" xmlns="http://www.w3.org/2000/svg" p-id="1221" xmlns:xlink="http://www.w3.org/1999/xlink" width="200" height="200"><path d="M512 749.43c-61.82 0-119.94-24.07-163.65-67.79-43.71-43.71-67.79-101.83-67.79-163.65s24.07-119.94 67.79-163.65c43.71-43.71 101.83-67.79 163.65-67.79s119.94 24.07 163.65 67.79c43.71 43.71 67.79 101.83 67.79 163.65s-24.07 119.94-67.79 163.65c-43.71 43.71-101.83 67.79-163.65 67.79z m0-432.88c-111.08 0-201.44 90.37-201.44 201.44S400.93 719.43 512 719.43s201.44-90.37 201.44-201.44S623.07 316.55 512 316.55zM512 248.62c-8.28 0-15-6.72-15-15V145c0-8.28 6.72-15 15-15s15 6.72 15 15v88.62c0 8.28-6.72 15-15 15zM512 905.51c-8.28 0-15-6.72-15-15v-88.62c0-8.28 6.72-15 15-15s15 6.72 15 15v88.62c0 8.28-6.72 15-15 15zM311.09 311.05c-3.84 0-7.68-1.46-10.61-4.39l-62.67-62.67c-5.86-5.86-5.86-15.36 0-21.21 5.86-5.86 15.36-5.86 21.21 0l62.67 62.67c5.86 5.86 5.86 15.36 0 21.21a14.953 14.953 0 0 1-10.61 4.39zM775.58 775.54c-3.84 0-7.68-1.46-10.61-4.39l-62.67-62.67c-5.86-5.86-5.86-15.36 0-21.21 5.86-5.86 15.36-5.86 21.21 0l62.67 62.67c5.86 5.86 5.86 15.36 0 21.21a14.953 14.953 0 0 1-10.61 4.39zM248.42 775.54c-3.84 0-7.68-1.46-10.61-4.39-5.86-5.86-5.86-15.36 0-21.21l62.67-62.67c5.86-5.86 15.36-5.86 21.21 0 5.86 5.86 5.86 15.36 0 21.21l-62.67 62.67a14.953 14.953 0 0 1-10.61 4.39zM712.91 311.05c-3.84 0-7.68-1.46-10.61-4.39-5.86-5.86-5.86-15.36 0-21.21l62.67-62.67c5.86-5.86 15.36-5.86 21.21 0 5.86 5.86 5.86 15.36 0 21.21l-62.67 62.67a14.953 14.953 0 0 1-10.61 4.39zM139.25 532.75c-8.28 0-15-6.72-15-15s6.72-15 15-15h88.62c8.28 0 15 6.72 15 15s-6.72 15-15 15h-88.62zM884.75 532.75h-88.62c-8.28 0-15-6.72-15-15s6.72-15 15-15h88.62c8.28 0 15 6.72 15 15s-6.72 15-15 15z" fill="#333333" p-id="1222"></path><path d="M600.42 500.84l-57.63-11.8 24.33-95.62c5.3-20.84-20.62-35.07-35.35-19.41L412.78 500.46c-11.18 11.88-4.99 31.41 10.99 34.68l57.63 11.8-24.33 95.62c-5.3 20.84 20.62 35.07 35.35 19.41l118.99-126.45c11.18-11.88 4.99-31.41-10.99-34.68z" fill="#52E217" p-id="1223"></path><path d="M477.41 683.63c-5.89 0-11.85-1.48-17.4-4.53-14.55-7.99-21.57-24.16-17.48-40.24l20.45-80.38-42.23-8.65c-12.91-2.64-22.99-11.72-26.97-24.28-3.98-12.56-0.97-25.78 8.06-35.38l118.99-126.45c11.37-12.09 28.79-14.84 43.33-6.85 14.55 7.99 21.57 24.16 17.48 40.24l-20.45 80.38 42.23 8.65c12.91 2.64 22.99 11.72 26.97 24.28 3.98 12.56 0.97 25.78-8.06 35.38L503.34 672.25c-7.04 7.48-16.38 11.38-25.94 11.38z m69.34-301.3c-1.29 0-2.69 0.5-4.06 1.95L423.7 510.73c-2.04 2.17-1.7 4.54-1.31 5.75 0.39 1.22 1.47 3.35 4.39 3.95l57.63 11.8c4.02 0.82 7.52 3.25 9.7 6.73 2.18 3.47 2.84 7.69 1.83 11.66l-24.33 95.62c-0.92 3.62 1.04 5.56 2.84 6.55 1.8 0.99 4.49 1.6 7.05-1.11l118.99-126.45c2.04-2.17 1.7-4.54 1.31-5.75-0.39-1.22-1.47-3.35-4.39-3.95l-57.63-11.8c-4.02-0.82-7.52-3.25-9.7-6.73a14.986 14.986 0 0 1-1.83-11.66l24.33-95.62c0.92-3.61-1.04-5.56-2.84-6.55-0.84-0.46-1.87-0.84-2.99-0.84z" fill="#333333" p-id="1224"></path></svg>